<svg xmlns="http://www.w3.org/2000/svg" viewBox="0 0 263 60" width="263" height="60">
  <path d="M9.84 50L3.84 50L3.84 14.96L9.84 14.96L9.84 33.97L14.02 33.97L20.45 23.60L27.17 23.60L19.20 36.37L27.31 50L20.45 50L14.02 39.06L9.84 39.06L9.84 50ZM44.30 50.43L42.19 50.43Q39.17 50.43 36.91 49.47Q34.66 48.51 33.38 46.81Q32.11 45.10 32.02 42.80L32.02 42.80L38.02 42.80Q38.11 44.05 39.24 44.82Q40.37 45.58 42.19 45.58L42.19 45.58L44.30 45.58Q46.51 45.58 47.62 44.72Q48.72 43.86 48.72 42.37L48.72 42.37Q48.72 40.98 47.74 40.18Q46.75 39.39 44.69 39.15L44.69 39.15L41.42 38.67Q36.91 38.05 34.80 36.27Q32.69 34.50 32.69 30.94L32.69 30.94Q32.69 27.25 35.18 25.21Q37.68 23.17 42.53 23.17L42.53 23.17L44.35 23.17Q48.77 23.17 51.41 25.14Q54.05 27.10 54.24 30.42L54.24 30.42L48.24 30.42Q48.10 29.36 47.06 28.69Q46.03 28.02 44.35 28.02L44.35 28.02L42.53 28.02Q40.46 28.02 39.53 28.76Q38.59 29.50 38.59 30.94L38.59 30.94Q38.59 32.29 39.41 32.94Q40.22 33.58 42.05 33.87L42.05 33.87L45.46 34.35Q50.16 35.02 52.39 36.87Q54.62 38.72 54.62 42.32L54.62 42.32Q54.62 46.16 52.01 48.30Q49.39 50.43 44.30 50.43L44.30 50.43ZM72.05 50.48L72.05 50.48Q68.69 50.48 66.19 49.18Q63.70 47.89 62.33 45.56Q60.96 43.23 60.96 40.11L60.96 40.11L60.96 33.49Q60.96 30.37 62.33 28.04Q63.70 25.71 66.19 24.42Q68.69 23.12 72.05 23.12L72.05 23.12Q75.36 23.12 77.83 24.42Q80.30 25.71 81.67 28.04Q83.04 30.37 83.04 33.49L83.04 33.49L83.04 38.24L66.77 38.24L66.77 40.11Q66.77 42.90 68.11 44.31Q69.46 45.73 72.10 45.73L72.10 45.73Q74.11 45.73 75.36 45.03Q76.61 44.34 76.94 42.99L76.94 42.99L82.85 42.99Q82.18 46.40 79.22 48.44Q76.27 50.48 72.05 50.48ZM77.66 34.40L77.23 34.88L77.23 33.44Q77.23 30.70 75.94 29.24Q74.64 27.78 72.05 27.78L72.05 27.78Q69.46 27.78 68.11 29.26Q66.77 30.75 66.77 33.49L66.77 33.49L66.77 34.50L77.66 34.40ZM102.24 50L96.24 50L96.24 31.95L88.99 31.95L88.99 26.53L96.24 26.53L96.24 22.54Q96.24 19.09 98.54 17.02Q100.85 14.96 104.64 14.96L104.64 14.96L112.37 14.96L112.37 20.24L104.78 20.24Q103.63 20.24 102.94 20.89Q102.24 21.54 102.24 22.64L102.24 22.64L102.24 26.53L112.37 26.53L112.37 31.95L102.24 31.95L102.24 50ZM129.60 50.48L129.60 50.48Q124.56 50.48 121.68 47.67Q118.80 44.86 118.80 40.02L118.80 40.02L118.80 23.60L124.80 23.60L124.80 39.97Q124.80 42.51 126.05 43.88Q127.30 45.25 129.60 45.25L129.60 45.25Q131.86 45.25 133.13 43.88Q134.40 42.51 134.40 39.97L134.40 39.97L134.40 23.60L140.40 23.60L140.40 40.02Q140.40 44.86 137.47 47.67Q134.54 50.48 129.60 50.48ZM155.33 58.64L147.94 58.64L147.94 53.07L154.99 53.07Q157.39 53.07 158.69 51.78Q159.98 50.48 159.98 48.13L159.98 48.13L159.98 29.17L149.38 29.17L149.38 23.60L165.98 23.60L165.98 48.27Q165.98 53.07 163.10 55.86Q160.22 58.64 155.33 58.64L155.33 58.64ZM162.77 19.18L162.77 19.18Q160.94 19.18 159.89 18.25Q158.83 17.31 158.83 15.73L158.83 15.73Q158.83 14.14 159.89 13.21Q160.94 12.27 162.77 12.27L162.77 12.27Q164.59 12.27 165.65 13.21Q166.70 14.14 166.70 15.73L166.70 15.73Q166.70 17.31 165.65 18.25Q164.59 19.18 162.77 19.18Z" fill="#0f172a"/>
  <circle cx="189" cy="34" r="10" fill="#8b5cf6"/>
  <path d="M229.48 50L222.28 50Q218.87 50 216.98 48.18Q215.08 46.35 215.08 43.04L215.08 43.04L215.08 27.54L207.64 27.54L207.64 23.60L215.08 23.60L215.08 16.16L219.40 16.16L219.40 23.60L229.96 23.60L229.96 27.54L219.40 27.54L219.40 43.04Q219.40 46.06 222.28 46.06L222.28 46.06L229.48 46.06L229.48 50ZM248.20 50.38L248.20 50.38Q245.03 50.38 242.73 49.18Q240.42 47.98 239.15 45.70Q237.88 43.42 237.88 40.30L237.88 40.30L237.88 33.30Q237.88 30.13 239.15 27.87Q240.42 25.62 242.73 24.42Q245.03 23.22 248.20 23.22L248.20 23.22Q251.37 23.22 253.67 24.42Q255.98 25.62 257.25 27.87Q258.52 30.13 258.52 33.25L258.52 33.25L258.52 40.30Q258.52 43.42 257.25 45.70Q255.98 47.98 253.67 49.18Q251.37 50.38 248.20 50.38ZM248.20 46.54L248.20 46.54Q251.03 46.54 252.62 44.96Q254.20 43.38 254.20 40.30L254.20 40.30L254.20 33.30Q254.20 30.22 252.62 28.64Q251.03 27.06 248.20 27.06L248.20 27.06Q245.42 27.06 243.81 28.64Q242.20 30.22 242.20 33.30L242.20 33.30L242.20 40.30Q242.20 43.38 243.81 44.96Q245.42 46.54 248.20 46.54Z" fill="#94a3b8"/>
</svg>